<?xml version="1.0" encoding="UTF-8" standalone="no" ?>
<!DOCTYPE svg PUBLIC "-//W3C//DTD SVG 1.1//EN" "http://www.w3.org/Graphics/SVG/1.1/DTD/svg11.dtd">
<svg xmlns="http://www.w3.org/2000/svg" xmlns:xlink="http://www.w3.org/1999/xlink" version="1.1" width="1080" height="1080" viewBox="0 0 1080 1080" xml:space="preserve">
<desc>Created with Fabric.js 5.2.4</desc>
<defs>
</defs>
<g transform="matrix(1 0 0 1 540 540)" id="df3b0c7a-e495-4370-bc55-51971739bac2"  >
</g>
<g transform="matrix(1 0 0 1 540 540)" id="d69f3162-5154-4012-aedf-e26db79250de"  >
<rect style="stroke: none; stroke-width: 1; stroke-dasharray: none; stroke-linecap: butt; stroke-dashoffset: 0; stroke-linejoin: miter; stroke-miterlimit: 4; fill: rgb(255,255,255); fill-rule: nonzero; opacity: 1; visibility: hidden;" vector-effect="non-scaling-stroke"  x="-540" y="-540" rx="0" ry="0" width="1080" height="1080" />
</g>
<g transform="matrix(11.82 0 0 11.82 580.94 810.28)"  >
<rect style="stroke: none; stroke-width: 1; stroke-dasharray: none; stroke-linecap: butt; stroke-dashoffset: 0; stroke-linejoin: miter; stroke-miterlimit: 4; fill: rgb(0,0,0); fill-rule: nonzero; opacity: 1;" vector-effect="non-scaling-stroke"  x="-1.33" y="-1.855" rx="0" ry="0" width="2.66" height="3.71" />
</g>
<g transform="matrix(11.82 0 0 11.82 573.08 899.74)"  >
<polygon style="stroke: none; stroke-width: 1; stroke-dasharray: none; stroke-linecap: butt; stroke-dashoffset: 0; stroke-linejoin: miter; stroke-miterlimit: 4; fill: rgb(0,0,0); fill-rule: nonzero; opacity: 1;" vector-effect="non-scaling-stroke"  points="-0.67,-0.67 -2,-0.67 -2,2 2,2 2,-2 -0.67,-2 -0.67,-0.67 " />
</g>
<g transform="matrix(11.82 0 0 11.82 463.36 907.6)"  >
<rect style="stroke: none; stroke-width: 1; stroke-dasharray: none; stroke-linecap: butt; stroke-dashoffset: 0; stroke-linejoin: miter; stroke-miterlimit: 4; fill: rgb(0,0,0); fill-rule: nonzero; opacity: 1;" vector-effect="non-scaling-stroke"  x="-2.43" y="-1.33" rx="0" ry="0" width="4.86" height="2.66" />
</g>
<g transform="matrix(11.82 0 0 11.82 233.69 907.6)"  >
<rect style="stroke: none; stroke-width: 1; stroke-dasharray: none; stroke-linecap: butt; stroke-dashoffset: 0; stroke-linejoin: miter; stroke-miterlimit: 4; fill: rgb(0,0,0); fill-rule: nonzero; opacity: 1;" vector-effect="non-scaling-stroke"  x="-2.43" y="-1.33" rx="0" ry="0" width="4.86" height="2.66" />
</g>
<g transform="matrix(11.82 0 0 11.82 348.53 907.6)"  >
<rect style="stroke: none; stroke-width: 1; stroke-dasharray: none; stroke-linecap: butt; stroke-dashoffset: 0; stroke-linejoin: miter; stroke-miterlimit: 4; fill: rgb(0,0,0); fill-rule: nonzero; opacity: 1;" vector-effect="non-scaling-stroke"  x="-2.43" y="-1.33" rx="0" ry="0" width="4.86" height="2.66" />
</g>
<g transform="matrix(11.82 0 0 11.82 123.95 899.74)"  >
<polygon style="stroke: none; stroke-width: 1; stroke-dasharray: none; stroke-linecap: butt; stroke-dashoffset: 0; stroke-linejoin: miter; stroke-miterlimit: 4; fill: rgb(0,0,0); fill-rule: nonzero; opacity: 1;" vector-effect="non-scaling-stroke"  points="0.67,-2 -2,-2 -2,2 2,2 2,-0.67 0.67,-0.67 0.67,-2 " />
</g>
<g transform="matrix(11.82 0 0 11.82 116.06 560.35)"  >
<rect style="stroke: none; stroke-width: 1; stroke-dasharray: none; stroke-linecap: butt; stroke-dashoffset: 0; stroke-linejoin: miter; stroke-miterlimit: 4; fill: rgb(0,0,0); fill-rule: nonzero; opacity: 1;" vector-effect="non-scaling-stroke"  x="-1.33" y="-2.43" rx="0" ry="0" width="2.66" height="4.86" />
</g>
<g transform="matrix(11.82 0 0 11.82 116.06 675.18)"  >
<rect style="stroke: none; stroke-width: 1; stroke-dasharray: none; stroke-linecap: butt; stroke-dashoffset: 0; stroke-linejoin: miter; stroke-miterlimit: 4; fill: rgb(0,0,0); fill-rule: nonzero; opacity: 1;" vector-effect="non-scaling-stroke"  x="-1.33" y="-2.43" rx="0" ry="0" width="2.66" height="4.86" />
</g>
<g transform="matrix(11.82 0 0 11.82 116.06 790.02)"  >
<rect style="stroke: none; stroke-width: 1; stroke-dasharray: none; stroke-linecap: butt; stroke-dashoffset: 0; stroke-linejoin: miter; stroke-miterlimit: 4; fill: rgb(0,0,0); fill-rule: nonzero; opacity: 1;" vector-effect="non-scaling-stroke"  x="-1.33" y="-2.43" rx="0" ry="0" width="2.66" height="4.86" />
</g>
<g transform="matrix(11.82 0 0 11.82 123.95 450.61)"  >
<polygon style="stroke: none; stroke-width: 1; stroke-dasharray: none; stroke-linecap: butt; stroke-dashoffset: 0; stroke-linejoin: miter; stroke-miterlimit: 4; fill: rgb(0,0,0); fill-rule: nonzero; opacity: 1;" vector-effect="non-scaling-stroke"  points="-2,2 0.67,2 0.67,0.67 2,0.67 2,-2 -2,-2 -2,2 " />
</g>
<g transform="matrix(11.82 0 0 11.82 227.3 442.71)"  >
<rect style="stroke: none; stroke-width: 1; stroke-dasharray: none; stroke-linecap: butt; stroke-dashoffset: 0; stroke-linejoin: miter; stroke-miterlimit: 4; fill: rgb(0,0,0); fill-rule: nonzero; opacity: 1;" vector-effect="non-scaling-stroke"  x="-2.25" y="-1.33" rx="0" ry="0" width="4.5" height="2.66" />
</g>
<g transform="matrix(11.82 0 0 11.82 643.33 500.71)"  >
<path style="stroke: none; stroke-width: 1; stroke-dasharray: none; stroke-linecap: butt; stroke-dashoffset: 0; stroke-linejoin: miter; stroke-miterlimit: 4; fill: rgb(0,0,0); fill-rule: nonzero; opacity: 1;" vector-effect="non-scaling-stroke"  transform=" translate(-55.55, -43.5)" d="M 83.97551 54.24735 C 83.86200269017583 53.787704508278445 83.51576953205601 53.42124870113634 83.0633 53.281859999999995 L 68.90069 49.047059999999995 L 68.90069 26.11517 C 68.90171925411568 25.762046981124364 68.76004220840835 25.423485470137503 68.50782 25.17634 L 58.11391 14.77576 C 57.866753532153254 14.523529757313613 57.528176429647026 14.381852223404103 57.175039999999996 14.38289 L 29.74866 14.38289 C 29.01408052257231 14.385053756219111 28.41912375621911 14.98001052257231 28.41696 15.71459 L 28.41696 37.25483 L 27.085259999999998 37.25483 L 27.085259999999998 39.91823 L 28.417 39.91823 L 28.417 62.78355 L 48.93184 62.78355 L 48.93184 64.11525 L 51.595240000000004 64.11525 L 51.595240000000004 62.783550000000005 L 61.08361000000001 62.783550000000005 L 63.98671000000001 71.69930000000001 C 64.13232309331826 72.13372192199938 64.48832598492295 72.46464458873913 64.93221000000001 72.57819 C 65.03669822419633 72.60458236483974 65.14404021597225 72.61800011381173 65.25181 72.61814000000001 C 65.59660746178764 72.61654279931155 65.92773937803587 72.48314050701572 66.17735 72.24527 L 71.77051 66.87189000000001 L 76.79101 71.89239 C 77.31178375085175 72.41173103469792 78.15460624914826 72.41173103469792 78.67538 71.89239 L 82.9368 67.63093 C 83.18814510013843 67.38045754933447 83.32949871272127 67.04026908827338 83.32967000000001 66.68543000000001 C 83.33069925411569 66.33230698112438 83.18902220840836 65.99374547013751 82.9368 65.74660000000002 L 78.04948 60.85260000000002 L 83.60265 55.51913000000002 C 83.94454059368206 55.19184682061453 84.08656264638023 54.70742691453593 83.97551 54.24735 Z M 58.32032 18.7442 L 64.53272 24.96326 L 58.320319999999995 24.96326 L 58.320319999999995 18.7442 Z M 66.23732 48.24803 L 57.7144 45.69785 C 57.23964146316089 45.55695558612998 56.72591063902889 45.691113978946206 56.38066186395396 46.04614945248461 C 56.035413088879025 46.40118492602303 55.91566339501597 46.91846419764144 56.06977 47.3891 L 60.218 60.12015 L 31.08036 60.12015 L 31.08036 17.04629 L 55.65692 17.04629 L 55.65692 26.295 C 55.65908375621911 27.02957947742769 56.25404052257231 27.624536243780888 56.98862 27.626700000000003 L 66.23729 27.626700000000003 L 66.23729 48.248 Z" stroke-linecap="round" />
</g>
<g transform="matrix(11.82 0 0 11.82 558.94 364.36)"  >
<path style="stroke: none; stroke-width: 1; stroke-dasharray: none; stroke-linecap: butt; stroke-dashoffset: 0; stroke-linejoin: miter; stroke-miterlimit: 4; fill: rgb(0,0,0); fill-rule: nonzero; opacity: 1;" vector-effect="non-scaling-stroke"  transform=" translate(-48.4, -31.95)" d="M 61.13685 31.95469 C 61.13721158417542 32.219693608489486 61.032099397182165 32.473947351117985 60.844713374150075 32.661333374150075 C 60.657327351117985 32.848719397182165 60.403073608489485 32.95383158417541 60.13807 32.953469999999996 L 36.66685 32.953469999999996 C 36.116475582010814 32.951728494095846 35.67123034412676 32.50507217323645 35.67123034412676 31.954694999999994 C 35.67123034412676 31.404317826763545 36.116475582010814 30.95766150590414 36.66685 30.955919999999995 L 60.13808 30.955919999999995 C 60.40308014169908 30.955561081035047 60.65732979145589 31.06067307038135 60.84471336053727 31.248056639462728 C 61.03209692961865 31.435440208544108 61.13720891896495 31.689689858300923 61.13685 31.95469 Z" stroke-linecap="round" />
</g>
<g transform="matrix(11.82 0 0 11.82 558.9 421.48)"  >
<path style="stroke: none; stroke-width: 1; stroke-dasharray: none; stroke-linecap: butt; stroke-dashoffset: 0; stroke-linejoin: miter; stroke-miterlimit: 4; fill: rgb(0,0,0); fill-rule: nonzero; opacity: 1;" vector-effect="non-scaling-stroke"  transform=" translate(-48.4, -36.79)" d="M 61.13685 36.78877 C 61.137203588807814 37.05377116464456 61.03208883413592 37.30802025944477 60.84470454679035 37.49540454679035 C 60.65732025944477 37.68278883413592 60.40307116464456 37.787903588807815 60.13807 37.787549999999996 L 36.66685 37.787549999999996 C 36.30926923502899 37.7886814643144 35.97836581319063 37.59856386306262 35.799248009008934 37.28907703634157 C 35.62013020482724 36.979590209620504 35.62013020482724 36.59795979037949 35.799248009008934 36.28847296365843 C 35.97836581319063 35.97898613693737 36.30926923502899 35.788868535685594 36.66685 35.79 L 60.13808 35.79 C 60.40308014169908 35.78964108103505 60.65732979145589 35.89475307038135 60.84471336053727 36.08213663946273 C 61.03209692961865 36.26952020854411 61.13720891896495 36.52376985830092 61.13685 36.78877 Z" stroke-linecap="round" />
</g>
<g transform="matrix(11.82 0 0 11.82 558.94 478.7)"  >
<path style="stroke: none; stroke-width: 1; stroke-dasharray: none; stroke-linecap: butt; stroke-dashoffset: 0; stroke-linejoin: miter; stroke-miterlimit: 4; fill: rgb(0,0,0); fill-rule: nonzero; opacity: 1;" vector-effect="non-scaling-stroke"  transform=" translate(-48.4, -41.63)" d="M 61.13685 41.62947 C 61.13721158417542 41.894473608489484 61.032099397182165 42.148727351117984 60.844713374150075 42.336113374150074 C 60.657327351117985 42.523499397182164 60.403073608489485 42.62861158417541 60.13807 42.628249999999994 L 36.66685 42.628249999999994 C 36.116475582011034 42.62650849409554 35.67123034412732 42.17985217323623 35.67123034412732 41.629475 C 35.67123034412732 41.079097826763764 36.116475582011034 40.63244150590445 36.66685 40.6307 L 60.13808 40.6307 C 60.4030776978889 40.630349076112836 60.65732270000349 40.73546363304362 60.844704533479934 40.922845466520066 C 61.03208636695638 41.11022729999651 61.137200923887164 41.3644723021111 61.13685 41.62947 Z" stroke-linecap="round" />
</g>
</svg>