<?xml version="1.0" encoding="UTF-8" standalone="no" ?>
<!DOCTYPE svg PUBLIC "-//W3C//DTD SVG 1.1//EN" "http://www.w3.org/Graphics/SVG/1.1/DTD/svg11.dtd">
<svg xmlns="http://www.w3.org/2000/svg" xmlns:xlink="http://www.w3.org/1999/xlink" version="1.1" width="1080" height="1080" viewBox="0 0 1080 1080" xml:space="preserve">
<desc>Created with Fabric.js 5.2.4</desc>
<defs>
</defs>
<rect x="0" y="0" width="100%" height="100%" fill="transparent"></rect>
<g transform="matrix(1 0 0 1 540 540)" id="b6f7b61c-961f-4935-9bfb-0052f6851d92"  >
<rect style="stroke: none; stroke-width: 1; stroke-dasharray: none; stroke-linecap: butt; stroke-dashoffset: 0; stroke-linejoin: miter; stroke-miterlimit: 4; fill: rgb(255,255,255); fill-rule: nonzero; opacity: 1; visibility: hidden;" vector-effect="non-scaling-stroke"  x="-540" y="-540" rx="0" ry="0" width="1080" height="1080" />
</g>
<g transform="matrix(1 0 0 1 540 540)" id="8cab904c-2f96-464d-993c-5fb61b456313"  >
</g>
<g transform="matrix(8.87 0 0 8.87 540 540)"  >
<path style="stroke: none; stroke-width: 1; stroke-dasharray: none; stroke-linecap: butt; stroke-dashoffset: 0; stroke-linejoin: miter; stroke-miterlimit: 4; fill: rgb(0,0,0); fill-rule: nonzero; opacity: 1;" vector-effect="non-scaling-stroke"  transform=" translate(-72.04, -72)" d="M 86.706 24.036 L 46.262 24.036 C 39.319 24.036 33.669 29.684 33.669 36.628 L 33.669 107.372 C 33.669 114.315 39.318 119.964 46.262 119.964 L 97.822 119.964 C 104.76400000000001 119.964 110.413 114.316 110.413 107.372 L 110.413 50.533 L 86.706 24.036 z M 88.365 34.888 L 100.70299999999999 48.679 L 88.365 48.679 L 88.365 34.888 z M 97.822 113.964 L 46.262 113.964 C 42.627 113.964 39.669 111.007 39.669 107.372 L 39.669 36.628 C 39.669 32.993 42.626999999999995 30.036 46.262 30.036 L 82.36500000000001 30.036 L 82.36500000000001 54.679 L 104.41300000000001 54.679 L 104.41300000000001 107.372 C 104.413 111.007 101.456 113.964 97.822 113.964 z" stroke-linecap="round" />
</g>
<g transform="matrix(8.87 0 0 8.87 537.88 595.7)"  >
<polygon style="stroke: none; stroke-width: 1; stroke-dasharray: none; stroke-linecap: butt; stroke-dashoffset: 0; stroke-linejoin: miter; stroke-miterlimit: 4; fill: rgb(0,0,0); fill-rule: nonzero; opacity: 1;" vector-effect="non-scaling-stroke"  points="-14.53,-1.64 -9.97,2.26 -3,-5.89 -3,18.64 3,18.64 3,-5.89 9.97,2.26 14.53,-1.64 0,-18.64 " />
</g>
</svg>