<?xml version="1.0" encoding="UTF-8" standalone="no" ?>
<!DOCTYPE svg PUBLIC "-//W3C//DTD SVG 1.1//EN" "http://www.w3.org/Graphics/SVG/1.1/DTD/svg11.dtd">
<svg xmlns="http://www.w3.org/2000/svg" xmlns:xlink="http://www.w3.org/1999/xlink" version="1.1" width="1080" height="1080" viewBox="0 0 1080 1080" xml:space="preserve">
<desc>Created with Fabric.js 5.2.4</desc>
<defs>
</defs>
<g transform="matrix(1 0 0 1 540 540)" id="f934d3d6-9ba0-4fb9-a4af-297698152b59"  >
<rect style="stroke: none; stroke-width: 1; stroke-dasharray: none; stroke-linecap: butt; stroke-dashoffset: 0; stroke-linejoin: miter; stroke-miterlimit: 4; fill: rgb(255,255,255); fill-rule: nonzero; opacity: 1; visibility: hidden;" vector-effect="non-scaling-stroke"  x="-540" y="-540" rx="0" ry="0" width="1080" height="1080" />
</g>
<g transform="matrix(1 0 0 1 540 540)" id="8e62e6c5-1063-4729-b188-140e66d091e3"  >
</g>
<g transform="matrix(24.6 0 0 24.6 540 540)"  >
<path style="stroke: none; stroke-width: 1; stroke-dasharray: none; stroke-linecap: butt; stroke-dashoffset: 0; stroke-linejoin: miter; stroke-miterlimit: 4; fill: rgb(0,0,0); fill-rule: nonzero; opacity: 1;" vector-effect="non-scaling-stroke"  transform=" translate(-24, -24)" d="M 8 23.5803 L 13.8926 20.213900000000002 C 14.6143 19.7998 15.0078 18.9707 14.8721 18.148500000000002 L 14.1804 14 L 26 14 L 26 27 L 28 27 L 28 14 C 28 12.8975 27.1025 12 26 12 L 12.4336 12 L 6 22.7227 L 6 42 C 6 43.1025 6.8975 44 8 44 L 18 44 L 18 42 L 8 42 L 8 23.5803 z M 9.8264 20.2335 L 12.4604 15.843499999999999 L 12.8995 18.4776 L 9.8264 20.2335 z M 22 11 L 20 11 L 20 8 L 22 8 L 22 11 z M 23 6 L 20 6 L 20 4 L 23 4 L 23 6 z M 28 6 L 25 6 L 25 4 L 28 4 L 28 6 z M 30 4 L 33 4 L 33 6 L 30 6 L 30 4 z M 35 4 L 38 4 L 38 6 L 35 6 L 35 4 z M 42 4 L 42 7 L 40 7 L 40 4 L 42 4 z M 40 9 L 42 9 L 42 12 L 40 12 L 40 9 z M 40 14 L 42 14 L 42 17 L 40 17 L 40 14 z M 40 19 L 42 19 L 42 22 L 40 22 L 40 19 z M 40 24 L 42 24 L 42 27 L 40 27 L 40 24 z M 40 29 L 42 29 L 42 32 L 40 32 L 40 29 z M 39 34 L 42 34 L 42 36 L 39 36 L 39 34 z M 34 34 L 37 34 L 37 36 L 34 36 L 34 34 z M 32.8145 33.9971 L 31.814500000000002 34 L 32.811600000000006 34 L 32.811600000000006 37 C 32.811600000000006 40.4912 31.580200000000005 42.4854 30.811600000000006 43.3887 L 30.811600000000006 44 L 28.811600000000006 44 L 28.811600000000006 42.5859 L 29.104600000000005 42.2929 C 29.505000000000006 41.892500000000005 30.811600000000006 40.3271 30.811600000000006 36.999900000000004 L 30.811600000000006 33.999900000000004 L 30.814500000000006 33.999900000000004 L 30.811600000000006 33.0028 C 30.810600000000004 32.7352 30.709100000000007 32.6424 30.619200000000006 32.5917 C 30.447300000000006 32.4911 30.183700000000005 32.494 30.005900000000008 32.5976 C 29.918900000000008 32.6481 29.821800000000007 32.7402 29.814400000000006 32.97 L 29.814500000000006 32.998 L 29.811600000000006 32.998 L 29.814500000000006 33.997 L 27.814500000000006 34.0029 L 27.811600000000006 33.0029 C 27.811600000000006 32.9944 27.814400000000006 32.986999999999995 27.814500000000006 32.9785 L 27.811600000000006 31.483299999999996 C 27.8105 31.1631 27.6465 31 27.3242 31 C 27.3232 31 27.3232 31 27.322200000000002 31 C 27.131800000000002 31 26.811500000000002 31.0635 26.811500000000002 31.4805 L 26.814400000000003 33.9991 L 26.811500000000002 33.9991 L 26.811500000000002 34 L 25.814400000000003 34 L 24.814400000000003 34.001 L 24.814400000000003 34 L 24.811500000000002 34 L 24.811500000000002 30.5186 C 24.811500000000002 30.253 24.710900000000002 30.1612 24.623 30.1104 C 24.450100000000003 30.0098 24.1855 30.0127 24.0087 30.1163 C 23.916900000000002 30.169 23.811400000000003 30.2628 23.811400000000003 30.517699999999998 L 23.814300000000003 33.9991 L 21.814300000000003 34.0011 L 21.811400000000003 31.5197 C 21.811400000000003 31.2531 21.7098 31.1613 21.621900000000004 31.110500000000002 C 21.451000000000004 31.0119 21.187300000000004 31.012800000000002 21.008600000000005 31.116400000000002 C 20.916800000000006 31.169100000000004 20.811300000000006 31.262900000000002 20.811300000000006 31.5178 L 20.814200000000007 33.9992 L 20.811300000000006 33.9992 L 20.811300000000006 35.7209 L 20.127700000000008 35.9484 C 19.17460000000001 36.266799999999996 19.067200000000007 36.7228 19.03100000000001 36.8722 C 18.853300000000008 37.629 19.412800000000008 39.1867 21.51830000000001 41.293099999999995 L 21.81130000000001 41.586099999999995 L 21.81130000000001 44 L 19.81130000000001 44 L 19.81130000000001 42.4082 C 17.66580000000001 40.168 16.69900000000001 38.0488 17.08470000000001 36.4131 C 17.239000000000008 35.7588 17.66970000000001 34.9141 18.81130000000001 34.334 L 18.81130000000001 33 L 18.81310000000001 33 L 18.81130000000001 31.5195 C 18.81030000000001 30.6035 19.24590000000001 29.825200000000002 20.00660000000001 29.384700000000002 C 20.66290000000001 29.004900000000003 21.47100000000001 28.954200000000004 22.18030000000001 29.198400000000003 C 22.382200000000008 28.870200000000004 22.65580000000001 28.588400000000004 23.00760000000001 28.384700000000002 C 23.80450000000001 27.923800000000004 24.831800000000012 27.920800000000003 25.622800000000012 28.377900000000004 C 25.960900000000013 28.573000000000004 26.223300000000012 28.845400000000005 26.422400000000014 29.160800000000005 C 26.699400000000015 29.061400000000006 26.998500000000014 29.000400000000006 27.319100000000013 29.000000000000007 C 27.321100000000012 29.000000000000007 27.322000000000013 29.000000000000007 27.323000000000015 29.000000000000007 C 28.426300000000015 29.000000000000007 29.311500000000013 29.650900000000007 29.653300000000016 30.605500000000006 C 30.308800000000016 30.437500000000007 31.025200000000016 30.517900000000008 31.614000000000015 30.856500000000008 C 32.371800000000015 31.291100000000007 32.80830000000002 32.07130000000001 32.81130000000002 32.99710000000001 L 32.8145 33.9971 z" stroke-linecap="round" />
</g>
</svg>