<?xml version="1.0" encoding="UTF-8" standalone="no" ?>
<!DOCTYPE svg PUBLIC "-//W3C//DTD SVG 1.1//EN" "http://www.w3.org/Graphics/SVG/1.1/DTD/svg11.dtd">
<svg xmlns="http://www.w3.org/2000/svg" xmlns:xlink="http://www.w3.org/1999/xlink" version="1.1" width="1080" height="1080" viewBox="0 0 1080 1080" xml:space="preserve">
<desc>Created with Fabric.js 5.2.4</desc>
<defs>
</defs>
<g transform="matrix(1 0 0 1 540 540)" id="afddab46-6c47-4227-bd2c-19c318468a58"  >
<rect style="stroke: none; stroke-width: 1; stroke-dasharray: none; stroke-linecap: butt; stroke-dashoffset: 0; stroke-linejoin: miter; stroke-miterlimit: 4; fill: rgb(255,255,255); fill-rule: nonzero; opacity: 1; visibility: hidden;" vector-effect="non-scaling-stroke"  x="-540" y="-540" rx="0" ry="0" width="1080" height="1080" />
</g>
<g transform="matrix(1 0 0 1 540 540)" id="a401aae2-bf2e-458a-91c2-7aac86cae94d"  >
</g>
<g transform="matrix(77.61 0 0 77.61 540 540)"  >
<path style="stroke: none; stroke-width: 1; stroke-dasharray: none; stroke-linecap: butt; stroke-dashoffset: 0; stroke-linejoin: miter; stroke-miterlimit: 4; fill: rgb(0,0,0); fill-rule: nonzero; opacity: 1;" vector-effect="non-scaling-stroke"  transform=" translate(-8, -8)" d="M 13.98096 6.63672 C 14.02393 6.4858400000000005 13.99366 6.32373 13.89893 6.19873 C 13.80469 6.07373 13.65674 6 13.5 6 L 12 6 L 12 4.5 C 12 4.22363 11.77637 4 11.5 4 L 8.18506 4 L 6.30127 2.14404 C 6.20752 2.05176 6.08154 2 5.9502 2 L 2.5 2 C 2.22363 2 2 2.22363 2 2.5 L 2 13.5 C 2 13.51807 2.00842 13.53333 2.01025 13.5509 C 2.01318 13.57977 2.01904 13.606010000000001 2.02697 13.63391 C 2.03954 13.67828 2.0573 13.71814 2.08093 13.75653 C 2.08954 13.77069 2.09051 13.7879 2.10058 13.801269999999999 C 2.1069299999999997 13.809689999999998 2.11749 13.81299 2.12432 13.82092 C 2.15722 13.85943 2.19646 13.889399999999998 2.23955 13.91644 C 2.25719 13.927489999999999 2.27141 13.94183 2.29027 13.950619999999999 C 2.35449 13.98059 2.42438 14 2.5 14 L 11.24023 14 C 11.25543 14 11.268180000000001 13.99274 11.28302 13.99139 C 12.77997 13.968440000000001 13.99121 12.74792 13.99121 11.245600000000001 C 13.99121 10.50341 13.692870000000001 9.831600000000002 13.21344 9.33642 L 13.98096 6.63672 z M 5.74512 3 L 7.62891 4.85596 C 7.72266 4.94824 7.84863 5 7.97998 5 L 11 5 L 11 6 L 4.5 6 C 4.27686 6 4.08057 6.14795 4.01904 6.36279 L 3 9.92944 L 3 3 L 5.74512 3 z M 4.87695 7 L 12.83789 7 L 12.34582 8.73114 C 12.00714 8.58173 11.63464 8.49561 11.241209999999999 8.49561 C 9.724609999999998 8.49561 8.491209999999999 9.729009999999999 8.491209999999999 11.24561 C 8.491209999999999 11.91578 8.74152 12.5224 9.141169999999999 13 L 3.16309 13 L 4.87695 7 z M 11.24121 12.99561 C 10.27637 12.99561 9.49121 12.21045 9.49121 11.24561 C 9.49121 10.280769999999999 10.27637 9.49561 11.24121 9.49561 C 12.206050000000001 9.49561 12.99121 10.280769999999999 12.99121 11.24561 C 12.99121 12.21045 12.20605 12.99561 11.24121 12.99561 z" stroke-linecap="round" />
</g>
<g transform="matrix(77.61 0 0 77.61 791.53 791.88)"  >
<path style="stroke: none; stroke-width: 1; stroke-dasharray: none; stroke-linecap: butt; stroke-dashoffset: 0; stroke-linejoin: miter; stroke-miterlimit: 4; fill: rgb(0,0,0); fill-rule: nonzero; opacity: 1;" vector-effect="non-scaling-stroke"  transform=" translate(-11.24, -11.25)" d="M 11.74121 10.82336 L 11.74121 10.4956 C 11.74121 10.21923 11.51758 9.9956 11.24121 9.9956 C 10.96484 9.9956 10.74121 10.21923 10.74121 10.4956 L 10.74121 10.81249 C 10.54932 10.702630000000001 10.30127 10.72802 10.137690000000001 10.89208 C 9.942380000000002 11.08739 9.942380000000002 11.4038 10.137690000000001 11.59911 L 10.887690000000001 12.34911 C 10.93566 12.397079999999999 10.991750000000001 12.4337 11.05212 12.458359999999999 C 11.11261 12.48308 11.17688 12.495589999999998 11.24121 12.495589999999998 C 11.305850000000001 12.495589999999998 11.3703 12.482709999999999 11.43103 12.457809999999998 C 11.431519999999999 12.457629999999998 11.432129999999999 12.457689999999998 11.43262 12.457499999999998 C 11.43457 12.456709999999998 11.43537 12.454509999999997 11.43726 12.453719999999997 C 11.49421 12.429369999999997 11.54822 12.395609999999998 11.59473 12.349109999999998 L 12.34473 11.599109999999998 C 12.54004 11.403799999999999 12.54004 11.087389999999997 12.34473 10.892079999999998 C 12.17999 10.72736 11.93292 10.71014 11.74121 10.82336 z" stroke-linecap="round" />
</g>
</svg>